<?xml version="1.0" encoding="UTF-8" standalone="no"?>
<!DOCTYPE svg PUBLIC "-//W3C//DTD SVG 1.1//EN" "http://www.w3.org/Graphics/SVG/1.1/DTD/svg11.dtd">
<svg width="100%" height="100%" viewBox="0 0 145 89" version="1.1" xmlns="http://www.w3.org/2000/svg" xmlns:xlink="http://www.w3.org/1999/xlink" xml:space="preserve" xmlns:serif="http://www.serif.com/" style="fill-rule:evenodd;clip-rule:evenodd;stroke-linecap:round;">
    <g>
        <path d="M24.756,11.69C27.204,7.358 32.256,5.209 37.075,6.45L131.972,30.886C138.319,32.52 141.838,39.308 139.515,45.437L127.321,77.617C125.305,82.937 119.564,85.842 114.083,84.315L14.981,56.712C8.097,54.794 4.84,46.924 8.357,40.702L24.756,11.69Z" style="fill-rule:nonzero;"/>
    </g>
    <path d="M75,61C89.912,61 102,52.493 102,42C102,31.507 89.912,23 75,23C60.088,23 48,31.507 48,42C48,52.493 60.088,61 75,61Z" style="fill:rgb(88,255,255);fill-rule:nonzero;"/>
    <path d="M83,13L102,18.091" style="fill:none;fill-rule:nonzero;stroke:black;stroke-width:2px;"/>
    <path d="M48,73L67,78.091" style="fill:none;fill-rule:nonzero;stroke:black;stroke-width:2px;"/>
    <path d="M81,8L107,15" style="fill:none;fill-rule:nonzero;stroke:black;stroke-width:2px;"/>
    <path d="M43,76L69,83" style="fill:none;fill-rule:nonzero;stroke:black;stroke-width:2px;"/>
    <path d="M54.372,39.634C54.522,38.647 55.353,37.98 56.271,37.852L63.036,36.915C64.225,36.75 65.35,37.498 65.659,38.658L66.47,41.71C66.65,42.388 67.297,42.835 67.995,42.763L82.54,41.256C83.323,41.175 83.893,40.474 83.812,39.691L83.517,36.849C83.379,35.514 84.374,34.328 85.712,34.233L93.086,33.709C93.883,33.652 94.791,34.003 95.131,34.875C96.281,37.831 94.997,42.459 88.28,45.835C84.501,47.734 79.15,48.833 73.856,49.267C68.556,49.7 63.25,49.472 59.54,48.673C59.412,48.646 59.284,48.607 59.153,48.549C57.504,47.819 54.795,45.624 54.336,42.058C54.405,42.264 54.609,42.401 54.834,42.378L61.52,41.686C61.781,41.659 61.97,41.425 61.943,41.164C61.916,40.903 61.683,40.714 61.422,40.741L54.736,41.433C54.504,41.458 54.329,41.645 54.312,41.87C54.239,41.175 54.251,40.43 54.372,39.634ZM87.994,38.182C87.733,38.209 87.543,38.443 87.57,38.704C87.597,38.965 87.831,39.155 88.092,39.128L91.435,38.782L94.778,38.435C95.038,38.408 95.228,38.175 95.201,37.914C95.174,37.653 94.94,37.463 94.68,37.49L91.337,37.835L87.994,38.182ZM54.336,42.058C54.325,42.025 54.316,41.991 54.312,41.955C54.309,41.926 54.31,41.898 54.312,41.87C54.319,41.933 54.328,41.996 54.336,42.058Z" style="fill-rule:nonzero;"/>
</svg>
